<svg xmlns="http://www.w3.org/2000/svg" 
  xmlns:xlink="http://www.w3.org/1999/xlink" viewBox="0 0 21 27">
  <defs>
    <path id="a" d="M.003 0H21v27H.003z"/>
  </defs>
  <g fill="none" fill-rule="evenodd">
    <path d="M11.819 11.154h6.543v-1.28h-6.543v1.28zm-.37.747a.372.372 0 01-.369-.374V9.5c0-.206.166-.374.37-.374h7.281c.204 0 .37.168.37.374v2.027a.372.372 0 01-.37.374H11.45zM11.45 14.236a.372.372 0 01-.37-.373c0-.206.166-.374.37-.374h7.272c.204 0 .37.168.37.374a.372.372 0 01-.37.373H11.45M11.45 16.22a.372.372 0 01-.37-.373c0-.206.166-.374.37-.374h7.272c.204 0 .37.168.37.374a.372.372 0 01-.37.373H11.45M6.333 12.773l.024.001a.371.371 0 01.304.2l1.657 3.203h.918V9.454H2.587v6.412l1.129-1.794a.371.371 0 01.312-.173c.104 0 .203.045.273.123l.547.61 1.183-1.7c.07-.1.182-.159.302-.159zm-3.066 3.404h4.218l-1.198-2.314-1.101 1.582a.367.367 0 01-.576.035l-.531-.593-.812 1.29zm-1.049.747a.372.372 0 01-.37-.374V9.08c0-.206.166-.373.37-.373h7.387c.204 0 .37.167.37.373v7.47a.372.372 0 01-.37.374H2.218z" fill="#0A0B09"/>
    <g>
      <mask id="b" fill="#fff">
        <use xlink:href="#a"/>
      </mask>
      <path d="M7.584 10.893a.372.372 0 00-.37.373c0 .206.166.374.37.374.203 0 .37-.168.37-.374a.372.372 0 00-.37-.373zm0 1.494a1.116 1.116 0 01-1.108-1.12c0-.619.497-1.121 1.108-1.121.61 0 1.108.502 1.108 1.12 0 .618-.497 1.12-1.108 1.12z" fill="#0A0B09" mask="url(#b)"/>
      <path d="M10.5.747c-.99 0-1.794.814-1.794 1.814s.805 1.814 1.794 1.814c.99 0 1.794-.813 1.794-1.814 0-1-.805-1.814-1.794-1.814zm-.58 5.55h1.16V5.06l-.183.03a2.517 2.517 0 01-.794 0l-.183-.03v1.235zM.739 18.995H20.26V7.043H.74v11.953zm9.18 4.375h1.161v-3.628H9.92v3.628zm-4.372 2.882h9.906l-.674-2.134H6.22l-.673 2.134zM5.042 27a.37.37 0 01-.298-.153.378.378 0 01-.054-.334l.909-2.881c.049-.156.19-.26.352-.26h3.23v-3.629H.369A.372.372 0 010 19.37V6.67c0-.206.166-.374.37-.374h8.81V4.748L9.11 4.7a2.565 2.565 0 01-1.143-2.14C7.967 1.15 9.103 0 10.5 0c1.396 0 2.533 1.149 2.533 2.561 0 .863-.427 1.662-1.143 2.14l-.071.047v1.548h8.812c.203 0 .369.168.369.374v12.7a.372.372 0 01-.37.373H11.82v3.628h3.23c.162 0 .303.105.352.26l.909 2.882a.378.378 0 01-.054.334.37.37 0 01-.298.153H5.042z" fill="#0A0B09" mask="url(#b)"/>
    </g>
  </g>
</svg>