<svg xmlns="http://www.w3.org/2000/svg" xmlns:xlink="http://www.w3.org/1999/xlink" width="16" height="16" viewBox="0 0 18 18"><defs><path d="M17.007 0H.993A.993.993 0 000 .993v16.014c0 .548.445.993.993.993h8.621v-6.97H7.27V8.312h2.345V6.309c0-2.324 1.42-3.59 3.494-3.59.994 0 1.848.074 2.096.107v2.43h-1.438c-1.128 0-1.346.536-1.346 1.322v1.735h2.69l-.35 2.716h-2.34V18h4.587a.993.993 0 00.993-.993V.993A.993.993 0 0017.007 0" fill="#FFFFFF" id="facebook-a"></path></defs><use xlink:href="#facebook-a" fill-rule="evenodd"></use></svg>