<svg xmlns="http://www.w3.org/2000/svg" 
  xmlns:xlink="http://www.w3.org/1999/xlink" viewBox="0 0 15 26">
  <defs>
    <path id="a" d="M.004.002H15v25.94H.004z"/>
  </defs>
  <g fill="none" fill-rule="evenodd">
    <mask id="b" fill="#fff">
      <use xlink:href="#a"/>
    </mask>
    <path d="M4.76 20.033h5.48v-2.856H4.76v2.856zm-.46.9a.455.455 0 01-.46-.45v-3.756c0-.249.206-.45.46-.45h6.4c.254 0 .46.202.46.45v3.756c0 .248-.206.45-.46.45H4.3z" fill="#0A0B09" mask="url(#b)"/>
    <path d="M7.5.9C5.99.9 4.76 2.102 4.76 3.58v.006a5.91 5.91 0 001.05 3.16l.005.008a.444.444 0 01-.243.702A9.15 9.15 0 002.4 9.031l-.202.155.218.133c1.813 1.1 2.78 2.506 2.956 4.295l.015.159h4.228l.015-.16c.176-1.788 1.143-3.193 2.956-4.294l.218-.133-.202-.155a9.153 9.153 0 00-3.174-1.575.445.445 0 01-.242-.702l.005-.007a5.909 5.909 0 001.05-3.16V3.58C10.24 2.102 9.01.9 7.5.9zM2.2 22.537h10.6v-7.864H2.2v7.864zM.92 25.041h13.16v-1.604H.92v1.604zm-.46.9a.455.455 0 01-.46-.45v-2.504c0-.248.206-.45.46-.45h.82v-8.314c0-.249.206-.45.46-.45H4.46l-.024-.197c-.203-1.654-1.224-2.888-3.215-3.882a.457.457 0 01-.25-.386.441.441 0 01.124-.322 9.191 9.191 0 013.438-2.144l.193-.068-.094-.178a6.958 6.958 0 01-.793-3.02C3.84 1.605 5.482 0 7.5 0c2.018 0 3.66 1.606 3.66 3.58a6.954 6.954 0 01-.793 3.016l-.094.178.194.068a9.195 9.195 0 013.44 2.147.446.446 0 01-.13.705c-1.99.994-3.012 2.228-3.214 3.882l-.024.197h2.721c.123 0 .239.047.326.132a.442.442 0 01.134.318v8.314h.82c.123 0 .239.047.326.132a.442.442 0 01.134.318v2.504c0 .249-.206.45-.46.45H.46z" fill="#0A0B09" mask="url(#b)"/>
  </g>
</svg>