<svg xmlns="http://www.w3.org/2000/svg" viewBox="0 0 24 22" width="18" height="17"><path d="M23.987 5.377c-.074 2.326-1.724 5.553-4.872 9.605-3.298 4.277-5.997 6.378-8.246 6.378-1.424 0-2.548-1.275-3.523-3.902-.674-2.401-1.274-4.727-1.949-7.129-.75-2.551-1.499-3.902-2.324-3.902-.15 0-.824.375-1.874 1.126L0 6.127c1.2-1.05 2.324-2.101 3.523-3.152C5.097 1.625 6.297.875 7.046.8c1.874-.15 2.999 1.126 3.449 3.827.45 2.927.824 4.803.974 5.478.525 2.477 1.124 3.677 1.8 3.677.524 0 1.273-.825 2.248-2.401.974-1.576 1.574-2.777 1.65-3.602.149-1.35-.376-2.026-1.65-2.026-.6 0-1.2.15-1.8.375C14.918 2.225 17.168.35 20.465.5c2.474.15 3.673 1.726 3.523 4.878z" fill="#FFF" fill-rule="evenodd"/></svg>