<svg xmlns="http://www.w3.org/2000/svg" width="18" height="12" viewBox="0 0 25 17"><path d="M24.774 3.686s-.226-1.655-.978-2.407C22.893.3 21.839.3 21.387.226 18.002 0 12.958 0 12.958 0S7.916 0 4.53.226C4.078.3 3.024.3 2.121 1.279c-.753.752-.979 2.407-.979 2.407S.917 5.642.917 7.597v1.806c0 1.955.225 3.911.225 3.911s.226 1.655.979 2.407c.903.978 2.107.903 2.634 1.053 1.957.15 8.203.226 8.203.226s5.043 0 8.43-.226c.451-.075 1.505-.075 2.408-1.053.752-.752.978-2.407.978-2.407S25 11.358 25 9.403V7.597c0-1.955-.226-3.911-.226-3.911zm-14.3 7.973V4.89l6.473 3.385-6.472 3.385z" fill-rule="evenodd" fill="#FFFFFF"></path></svg>