<svg xmlns="http://www.w3.org/2000/svg" width="18" height="12" viewBox="0 0 24 16"><path d="M18.778 3.938c.908 0 1.702.186 2.384.568a4.913 4.913 0 011.674 1.515c.437.633.747 1.36.94 2.174.193.813.259 1.661.207 2.55h-7.744c0 .898.282 1.757.729 2.213.442.462 1.077.693 1.904.693.593 0 1.11-.16 1.538-.482.427-.321.686-.662.785-1.014h2.595c-.418 1.38-1.048 2.36-1.913 2.952-.851.592-1.895.893-3.104.893-.846 0-1.603-.146-2.285-.432a4.85 4.85 0 01-1.73-1.23 5.71 5.71 0 01-1.09-1.907 7.477 7.477 0 01-.386-2.44c0-.857.131-1.656.395-2.393.268-.743.634-1.38 1.123-1.918a5.34 5.34 0 011.74-1.275c.672-.31 1.415-.467 2.238-.467zM6.952 0c.707 0 1.343.065 1.924.2.58.13 1.072.35 1.489.65.412.3.73.7.964 1.2.225.496.337 1.116.337 1.851 0 .795-.168 1.455-.506 1.985-.341.53-.838.96-1.502 1.3.908.28 1.577.77 2.027 1.466.45.7.665 1.54.665 2.53 0 .8-.146 1.486-.431 2.066a3.978 3.978 0 01-1.166 1.426c-.487.37-1.048.64-1.676.815a7.086 7.086 0 01-1.929.265H0V0h6.952zm-.187 8.727h-3.52v4.336h3.463v.005c.319 0 .623-.03.909-.1.29-.07.547-.175.763-.335.215-.155.398-.36.529-.63.13-.265.192-.605.192-1.02 0-.81-.216-1.39-.642-1.74-.426-.346-.992-.516-1.694-.516zm11.919-2.42c-.47 0-.86.086-1.17.257-.306.17-.556.381-.748.632a2.33 2.33 0 00-.395.808 3.873 3.873 0 00-.137.753h4.796c-.07-.803-.329-1.395-.682-1.812-.347-.412-.945-.637-1.664-.637zM6.278 2.682H3.244v3.68h3.287c.575 0 1.053-.144 1.427-.44.375-.29.553-.77.553-1.43 0-.365-.061-.67-.183-.905a1.412 1.412 0 00-.5-.55 1.894 1.894 0 00-.717-.275 4.14 4.14 0 00-.833-.08zM21.67 1.23v1.477h-6.058V1.23h6.058z" fill-rule="evenodd" fill="#FFFFFF"></path></svg>