<svg xmlns="http://www.w3.org/2000/svg" width="18" height="18" viewBox="0 0 24 24"><path d="M12 0c6.627 0 12 5.373 12 12s-5.373 12-12 12a11.962 11.962 0 01-8.435-3.465l-.063-.037.01-.016A11.962 11.962 0 010 12C0 5.373 5.373 0 12 0zm1.878 14.321l-.21.058c-.665.19-1.315.439-1.95.75-2.08 1.015-3.959 2.674-5.608 5.091A10.05 10.05 0 0012 22.114c1.343 0 2.625-.261 3.797-.737-.498-2.53-1.126-4.855-1.919-7.056zm3.567-.44l-.469.005c-.353.009-.702.03-1.047.064.711 2.021 1.29 4.14 1.762 6.412a10.123 10.123 0 004.132-5.941 27.53 27.53 0 00-.223-.048l-.29-.059c-1.571-.312-2.923-.464-4.334-.428zm-5.207-3.457l-.225.073c-.33.104-.668.201-1.015.293-2.594.686-5.606 1.03-9.109.986L1.886 12c0 2.642 1.013 5.048 2.672 6.85 1.814-2.595 3.913-4.425 6.257-5.57a13.991 13.991 0 012.312-.887 39.409 39.409 0 00-.89-1.97zm7.704-4.688l-.464.434-.032.029a19.77 19.77 0 01-2.305 1.853 18.203 18.203 0 01-2.971 1.642 41.76 41.76 0 011.007 2.273 16.106 16.106 0 011.747-.137c1.62-.042 3.145.135 4.9.49l.018.003c.088.017.208.043.342.071l-.077-.016a10.071 10.071 0 00-2.166-6.642zM7.564 2.908l-.212.107A10.133 10.133 0 002.144 9.72c3.223.025 5.976-.297 8.327-.92.276-.073.546-.15.809-.23-1.055-1.913-2.283-3.779-3.716-5.663zM12 1.886c-.832 0-1.64.1-2.414.29a47.168 47.168 0 013.646 5.68 16.084 16.084 0 002.749-1.503c.707-.483 1.319-.98 1.994-1.597l.14-.129.394-.369A10.074 10.074 0 0012 1.886z" fill-rule="evenodd" fill="#FFFFFF"></path></svg>