<?xml version="1.0" encoding="UTF-8"?>
<svg width="110px" height="75px" viewBox="0 0 110 75" version="1.1" xmlns="http://www.w3.org/2000/svg" xmlns:xlink="http://www.w3.org/1999/xlink">
    <!-- Generator: Sketch 63.1 (92452) - https://sketch.com -->
    <title>Footer - MD Logo Copy</title>
    <desc>Created with Sketch.</desc>
    <defs>
        <path d="M32.9693684,0.858955224 C12.3105263,0.898507463 0.875473684,18.4701493 0.875473684,18.4701493 L0.875473684,18.4701493 L0.890947368,49.9776119 L70.7833684,50.0298507 L70.7833684,19.1410448 C70.7833684,19.1410448 60.388,0.858955224 33.0887368,0.858955224 L33.0887368,0.858955224 L32.9693684,0.858955224 Z" id="path-1"></path>
    </defs>
    <g id="Symbols" stroke="none" stroke-width="1" fill="none" fill-rule="evenodd">
        <g id="0.-MSAC/Footer-Mobile-NEW" transform="translate(-134.000000, -34.000000)">
            <g id="Group-7" transform="translate(109.000000, 0.000000)">
                <g id="Footer---MD-Logo" transform="translate(24.962279, 33.000000)">
                    <g id="Group-3">
                        <g id="Group-13" transform="translate(18.037721, 0.000000)">
                            <g id="Group" transform="translate(0.162105, 0.843284)">
                                <mask id="mask-2" fill="white">
                                    <use xlink:href="#path-1"></use>
                                </mask>
                                <g id="Clip-3"></g>
                                <polygon id="Fill-2" fill="#FFC838" mask="url(#mask-2)" points="-0.951157895 64.6470149 56.9594737 64.6470149 56.9594737 -6 -0.951157895 -6"></polygon>
                                <polygon id="Fill-4" fill="#000000" mask="url(#mask-2)" points="57.1674842 35.7285075 38.2836947 24.2874627 38.2711684 -5.97522388 57.1674842 -5.97522388"></polygon>
                                <polygon id="Fill-5" fill="#000000" mask="url(#mask-2)" points="38.3380737 67.1566418 19.7048105 55.5864925 19.7048105 12.8939552 38.3380737 24.2790299"></polygon>
                                <polygon id="Fill-6" fill="#000000" mask="url(#mask-2)" points="19.6352526 12.9199254 19.6352526 1.25350746 0.813357895 1.25350746"></polygon>
                                <polygon id="Fill-7" fill="#C8122C" mask="url(#mask-2)" points="-6 50.0291045 84.1983158 50.0291045 84.1983158 34.769403 -6 34.769403"></polygon>
                                <polygon id="Fill-8" fill="#C8122C" mask="url(#mask-2)" points="57.0530526 32.9358209 83.9654737 32.9358209 83.9654737 0.396268657 57.0530526 0.396268657"></polygon>
                                <path d="M90.0598211,35.0441791 C90.0612947,34.999403 90.0701368,34.9576119 90.0701368,34.9113433 L90.0495053,34.9113433 C89.8734,33.1083582 88.3547684,31.9740299 86.5052947,31.9740299 L84.1245579,31.9740299 L84.1245579,28.9135821 C84.1245579,26.9165672 82.5263474,25.2979104 80.5552947,25.2979104 C78.5835053,25.2979104 76.9845579,26.9165672 76.9845579,28.9135821 L76.9845579,31.9740299 L59.6112947,31.9740299 L59.6112947,25.2434328 L62.3088737,25.2434328 C64.2828737,25.2434328 65.8796105,23.6240299 65.8796105,21.6277612 C65.8796105,19.63 64.2828737,18.0120896 62.3088737,18.0120896 L59.6112947,18.0120896 L59.6112947,16.2546269 C59.6112947,14.3329851 58.1302421,12.7695522 56.2608737,12.6531343 L56.2608737,12.6441791 C56.2395053,12.6441791 56.2181368,12.6471642 56.1952947,12.649403 C56.1724526,12.6471642 56.1503474,12.6441791 56.1260316,12.6441791 L56.1260316,12.6531343 C54.2596105,12.7695522 52.7807684,14.3329851 52.7807684,16.2546269 L52.7807684,18.0120896 L50.0802421,18.0120896 C48.1091895,18.0120896 46.5087684,19.63 46.5087684,21.6277612 C46.5087684,23.6240299 48.1091895,25.2434328 50.0802421,25.2434328 L52.7807684,25.2434328 L52.7807684,31.9740299 L35.4030842,31.9740299 L35.4030842,28.9135821 C35.4030842,26.9165672 33.8056105,25.2979104 31.8338211,25.2979104 C29.8635053,25.2979104 28.2652947,26.9165672 28.2652947,28.9135821 L28.2652947,31.9740299 L25.8852947,31.9740299 C24.0343474,31.9740299 22.5171895,33.1083582 22.3418211,34.9113433 L22.3226632,34.9113433 C22.3226632,34.9576119 22.3300316,34.999403 22.3307684,35.0441791 C22.3300316,35.088209 22.3226632,35.1307463 22.3226632,35.1770149 L22.3418211,35.1770149 C22.5171895,36.9785075 24.0343474,38.1143284 25.8852947,38.1143284 L28.2652947,38.1143284 L28.2652947,41.1740299 C28.2652947,43.1702985 29.8635053,44.7889552 31.8338211,44.7889552 C33.8056105,44.7889552 35.4030842,43.1702985 35.4030842,41.1740299 L35.4030842,38.1143284 L52.7807684,38.1143284 L52.7807684,44.8441791 L50.0802421,44.8441791 C48.1091895,44.8441791 46.5087684,46.4628358 46.5087684,48.4583582 C46.5087684,50.4576119 48.1091895,52.0747761 50.0802421,52.0747761 L52.7807684,52.0747761 L52.7807684,53.8329851 C52.7807684,55.7531343 54.2596105,57.3173134 56.1260316,57.4329851 L56.1260316,57.4426866 C56.1503474,57.4426866 56.1724526,57.4397015 56.1952947,57.438209 C56.2181368,57.4397015 56.2395053,57.4426866 56.2608737,57.4426866 L56.2608737,57.4329851 C58.1302421,57.3173134 59.6112947,55.7531343 59.6112947,53.8329851 L59.6112947,52.0747761 L62.3088737,52.0747761 C64.2828737,52.0747761 65.8796105,50.4576119 65.8796105,48.4583582 C65.8796105,46.4628358 64.2828737,44.8441791 62.3088737,44.8441791 L59.6112947,44.8441791 L59.6112947,38.1143284 L76.9845579,38.1143284 L76.9845579,41.1740299 C76.9845579,43.1702985 78.5835053,44.7889552 80.5552947,44.7889552 C82.5263474,44.7889552 84.1245579,43.1702985 84.1245579,41.1740299 L84.1245579,38.1143284 L86.5052947,38.1143284 C88.3547684,38.1143284 89.8734,36.9785075 90.0495053,35.1770149 L90.0701368,35.1770149 C90.0701368,35.1307463 90.0612947,35.088209 90.0598211,35.0441791" id="Fill-9" fill="#FFFFFF" mask="url(#mask-2)"></path>
                                <path d="M30.5508316,33.0239552 C30.5508316,33.0015672 30.5537789,32.9784328 30.5545158,32.956791 L30.5419895,32.956791 L30.5508316,33.0239552 Z" id="Fill-10" fill="#FFFFFF" mask="url(#mask-2)"></path>
                                <path d="M30.5422105,32.7496269 L30.5547368,32.7496269 C30.554,32.7264925 30.5510526,32.7048507 30.5510526,32.6817164 L30.5422105,32.7496269 Z" id="Fill-11" fill="#FFFFFF" mask="url(#mask-2)"></path>
                                <polygon id="Fill-12" fill="#FFFFFF" mask="url(#mask-2)" points="57.7643263 29.248209 57.7643263 29.29 57.7576947 29.29"></polygon>
                            </g>
                        </g>
                        <g id="Group-2" transform="translate(0.000000, 52.472347)" fill="#000000">
                            <polygon id="Fill-14" points="15.3867149 18.527653 15.3619742 5.82555723 9.98649001 16.7537009 8.11369231 16.7537009 2.73745839 5.82555723 2.73745839 18.527653 0.0377207962 18.527653 0.0377207962 1.52765304 3.44294384 1.52765304 9.06208666 12.8195692 14.6564888 1.52765304 18.0377208 1.52765304 18.0377208 18.527653"></polygon>
                            <path d="M30.3250623,13.3332961 L30.3250623,12.1554287 L26.8651378,12.1554287 C25.0618595,12.1554287 24.2220576,12.6359039 24.2220576,13.8604122 C24.2220576,15.012368 25.1588736,15.7578818 26.6962887,15.7578818 C28.6676755,15.7578818 30.1806519,14.7258597 30.3250623,13.3332961 L30.3250623,13.3332961 Z M30.3487604,16.2627878 C29.4363831,17.3917934 27.9708029,17.9440807 26.1201283,17.9440807 C23.3570765,17.9440807 21.6263736,16.2390972 21.6263736,13.9810862 C21.6263736,11.6505227 23.3807746,10.1631967 26.4563453,10.1372851 L30.3250623,10.1372851 L30.3250623,9.75379337 C30.3250623,8.14283204 29.2912321,7.18410276 27.2731897,7.18410276 C26.0475529,7.18410276 24.7745199,7.61571602 23.5007463,8.47968287 L22.3721236,6.55852265 C24.1494821,5.50132928 25.4469538,4.94978232 27.8737887,4.94978232 C31.1663453,4.94978232 33.0162793,6.63107514 33.0399774,9.44063315 L33.0636755,17.8248873 L30.3487604,17.8248873 L30.3487604,16.2627878 Z" id="Fill-15"></path>
                            <path d="M39.67145,7.59069282 C40.5364312,5.86201878 42.0738463,4.95067072 44.0926293,4.95067072 L44.0926293,7.59069282 C41.521384,7.4492895 39.8876953,8.96178674 39.67145,11.1479856 L39.67145,17.8250354 L36.9076576,17.8250354 L36.9076576,5.04617348 L39.67145,5.04617348 L39.67145,7.59069282 Z" id="Fill-17"></path>
                            <path d="M52.5524854,19.5776961 C51.7593392,21.5965801 50.3189382,22.6056519 48.3956882,22.6056519 C47.2426269,22.6056519 46.329509,22.2688011 45.4408298,21.5232873 L46.6175892,19.3859503 C47.2189288,19.8183039 47.6988156,20.0107901 48.2764571,20.0107901 C49.1169996,20.0107901 49.7894335,19.5540055 50.2211835,18.5937956 L50.6551552,17.632105 L45.3682543,5.04646961 L48.2275798,5.04646961 L52.0481599,14.7263039 L55.6043581,5.04646961 L58.3666694,5.04646961 L52.5524854,19.5776961 Z" id="Fill-19"></path>
                            <polygon id="Fill-21" points="60.141584 17.8248133 62.9046359 17.8248133 62.9046359 0.000592265193 60.141584 0.000592265193"></polygon>
                            <path d="M74.8692949,13.3332961 L74.8692949,12.1554287 L71.4108515,12.1554287 C69.6090543,12.1554287 68.7670307,12.6359039 68.7670307,13.8604122 C68.7670307,15.012368 69.7038467,15.7578818 71.2420024,15.7578818 C73.2111675,15.7578818 74.7271062,14.7258597 74.8692949,13.3332961 L74.8692949,13.3332961 Z M74.8937335,16.2627878 C73.9806156,17.3917934 72.5150354,17.9440807 70.665842,17.9440807 C67.901309,17.9440807 66.1713467,16.2390972 66.1713467,13.9810862 C66.1713467,11.6505227 67.9264882,10.1631967 71.002059,10.1372851 L74.8692949,10.1372851 L74.8692949,9.75379337 C74.8692949,8.14283204 73.8362052,7.18410276 71.8189033,7.18410276 C70.5940071,7.18410276 69.319493,7.61571602 68.0457194,8.47968287 L66.9170967,6.55852265 C68.6937147,5.50132928 69.9911864,4.94978232 72.4187618,4.94978232 C75.7105779,4.94978232 77.5605118,6.63107514 77.5849505,9.44063315 L77.6086486,17.8248873 L74.8937335,17.8248873 L74.8937335,16.2627878 Z" id="Fill-23"></path>
                            <path d="M93.6832269,9.87239448 L93.6832269,17.8250354 L90.920175,17.8250354 L90.920175,10.6408586 C90.920175,8.71969834 89.7671137,7.5433116 87.8438637,7.5433116 C85.7302882,7.56848287 84.4083779,9.0335989 84.2158307,11.0273116 L84.2158307,17.8250354 L81.4527788,17.8250354 L81.4527788,5.04617348 L84.2158307,5.04617348 L84.2158307,7.49593039 C85.1282081,5.71839448 86.7633779,4.95067072 88.9258307,4.95067072 C91.9051279,4.95067072 93.6832269,6.82296906 93.6832269,9.87239448" id="Fill-24"></path>
                            <path d="M106.920845,11.4818011 C106.920845,9.00983425 105.312335,7.2781989 103.003991,7.2781989 C100.698609,7.2781989 99.0878779,9.03352486 99.0649203,11.4818011 C99.0878779,13.9100884 100.67343,15.6387624 103.003991,15.6387624 C105.312335,15.6387624 106.920845,13.9100884 106.920845,11.4818011 L106.920845,11.4818011 Z M109.685378,17.8249613 L106.920845,17.8249613 L106.920845,15.6387624 C106.007727,17.1268287 104.470312,17.9441547 102.428571,17.9441547 C98.7516609,17.9441547 96.3018684,15.278221 96.3018684,11.3870387 C96.3018684,7.54323757 98.7746184,4.92616575 102.379694,4.92616575 C104.446614,4.92616575 105.984029,5.76496133 106.920845,7.25524862 L106.920845,0 L109.685378,0 L109.685378,17.8249613 Z" id="Fill-25"></path>
                        </g>
                    </g>
                </g>
            </g>
        </g>
    </g>
</svg>