<svg xmlns="http://www.w3.org/2000/svg" viewBox="0 0 28 33"><path d="M26.76 6.998c.675.681 1.24 2.044 1.24 3.02v21.214A1.76 1.76 0 0126.25 33H1.75A1.76 1.76 0 010 31.232V1.768A1.76 1.76 0 011.75 0h16.333c.966 0 2.315.57 2.99 1.252l5.687 5.746zm-8.093-4.494V9.43h6.854c-.11-.313-.274-.627-.401-.755L19.414 2.91c-.128-.13-.437-.295-.747-.406zm7 28.139V11.786h-7.584a1.76 1.76 0 01-1.75-1.768v-7.66h-14v28.285h23.334zm-9.37-10.92c.456.368.966.7 1.531 1.03a17.826 17.826 0 012.133-.128c1.221 0 2.77.147 3.227.902.127.184.236.516.036.958-.018.018-.037.055-.055.074v.018c-.054.331-.328.7-1.294.7-1.167 0-2.935-.534-4.466-1.345-2.534.277-5.195.848-7.146 1.529-1.878 3.241-3.318 4.825-4.411 4.825-.183 0-.347-.037-.51-.13l-.438-.22c-.055-.019-.073-.055-.11-.092-.09-.092-.164-.295-.11-.663.183-.847 1.168-2.265 3.428-3.462.146-.092.328-.037.42.11a.14.14 0 01.036.074 47.8 47.8 0 001.95-3.628c.82-1.657 1.459-3.278 1.896-4.825-.583-2.007-.766-4.07-.437-5.285.127-.46.4-.736.765-.736h.401c.274 0 .492.092.638.276.219.258.274.663.164 1.252-.018.055-.036.11-.073.147.019.056.019.092.019.148v.552c-.019 1.16-.037 2.265-.256 3.536.638 1.933 1.586 3.499 2.662 4.383zm-10.5 7.568c.547-.258 1.33-1.05 2.497-2.91-1.367 1.069-2.224 2.284-2.497 2.91zm7.255-16.942c-.182.516-.182 1.4-.036 2.431.054-.295.09-.57.127-.81.037-.313.091-.571.128-.792a.554.554 0 01.073-.147c-.018-.019-.018-.056-.037-.092-.018-.332-.127-.534-.237-.663 0 .037-.018.055-.018.073zm-2.26 12.173a27.605 27.605 0 015.177-1.492c-.183-.147-.365-.276-.529-.423-.893-.792-1.695-1.897-2.315-3.241-.346 1.123-.857 2.32-1.513 3.627-.273.516-.547 1.032-.82 1.529zm11.776-.295c-.091-.092-.565-.442-2.552-.442.893.332 1.713.516 2.26.516.164 0 .255 0 .328-.019 0-.018-.018-.036-.036-.055z" fill="#000" fill-rule="nonzero"/></svg>