<svg xmlns="http://www.w3.org/2000/svg" 
  xmlns:xlink="http://www.w3.org/1999/xlink" viewBox="0 0 23 22">
  <defs>
    <path id="a" d="M.013.015H21.7V12.9H.013z"/>
    <path id="c" d="M.013.015H21.7V12.9H.013z"/>
    <path id="e" d="M.003.03h22.994v10.476H.003z"/>
  </defs>
  <g fill="none" fill-rule="evenodd">
    <g transform="translate(.805 9.097)">
      <mask id="b" fill="#fff">
        <use xlink:href="#a"/>
      </mask>
      <path d="M21.064 10.337c-.415.024-.82.219-1.153.559-.371.378-.608.884-.64 1.35H2.441c-.032-.466-.27-.972-.64-1.35-.334-.34-.738-.535-1.154-.56V2.582c.416-.024.82-.219 1.154-.559.37-.378.608-.884.64-1.35H19.27c.032.466.27.972.64 1.35.334.34.739.535 1.154.56v7.755zm.483-8.268a.483.483 0 00-.36-.142c-.288.011-.583-.12-.83-.372-.28-.286-.463-.692-.455-1.012a.528.528 0 00-.141-.373.484.484 0 00-.354-.155H2.306A.483.483 0 001.95.17a.528.528 0 00-.14.373c.007.32-.175.726-.456 1.012-.246.251-.541.383-.83.372a.484.484 0 00-.36.142.524.524 0 00-.152.37v8.04c0 .14.055.274.152.37a.486.486 0 00.36.142c.289-.011.584.12.83.372.28.286.463.692.455 1.012a.528.528 0 00.141.373c.094.1.22.155.355.155h17.1c.135 0 .261-.055.355-.155a.528.528 0 00.141-.373c-.008-.32.175-.726.455-1.012.247-.251.541-.383.83-.372a.486.486 0 00.36-.142.524.524 0 00.153-.37V2.44a.524.524 0 00-.153-.37z" fill="#1A1919" mask="url(#b)"/>
    </g>
    <path d="M19.932 18.343c-.3.037-.588.186-.828.43a1.762 1.762 0 00-.49.974H4.708a1.76 1.76 0 00-.49-.973 1.409 1.409 0 00-.828-.431V12.77c.3-.037.588-.186.828-.43a1.76 1.76 0 00.49-.974h13.906c.045.342.223.701.49.973.24.245.528.394.828.431v5.573zm.497-6.092a.442.442 0 00-.326-.129c-.245.01-.435-.13-.553-.25-.188-.192-.316-.473-.311-.684a.478.478 0 00-.128-.338.437.437 0 00-.32-.14H4.53a.438.438 0 00-.32.14.477.477 0 00-.128.338c.005.21-.123.492-.312.685-.117.119-.307.26-.551.25a.441.441 0 00-.327.128.476.476 0 00-.138.335v5.94c0 .127.05.249.138.336a.44.44 0 00.327.128c.243-.01.435.13.552.25.188.193.316.474.311.685a.478.478 0 00.128.338c.085.09.199.14.32.14h14.26c.121 0 .235-.05.32-.14a.477.477 0 00.128-.338c-.005-.21.123-.492.312-.685.117-.119.308-.259.552-.25.12.006.239-.042.326-.128a.475.475 0 00.138-.335v-5.94a.475.475 0 00-.138-.336z" fill="#1A1919"/>
    <path d="M7.098 15.093l.13-.275.132.275a.53.53 0 00.399.3l.293.043-.212.214a.558.558 0 00-.152.484l.05.302-.263-.143a.516.516 0 00-.492 0l-.263.143.05-.302a.558.558 0 00-.152-.484l-.213-.214.294-.044a.531.531 0 00.399-.299zm-.997-.274a.531.531 0 00-.427.372.556.556 0 00.134.56l.326.329-.077.463a.551.551 0 00.21.535c.165.124.379.14.558.042l.404-.219.403.219a.517.517 0 00.558-.042.551.551 0 00.21-.535l-.077-.463.327-.329a.556.556 0 00.134-.56.531.531 0 00-.428-.372l-.45-.068-.202-.422a.525.525 0 00-.475-.304.525.525 0 00-.475.304l-.202.422-.45.068zM10.111 18.657a.323.323 0 00.318-.328v-5.545a.323.323 0 00-.318-.328.323.323 0 00-.317.328v5.545c0 .181.142.328.317.328M11.499 13.791h2.48a.323.323 0 00.317-.328.323.323 0 00-.318-.328h-2.48a.323.323 0 00-.317.328c0 .181.142.328.318.328M11.499 15.187h6.117a.323.323 0 00.317-.328.323.323 0 00-.317-.328h-6.117a.323.323 0 00-.318.328c0 .181.142.328.318.328M11.499 16.582h6.117a.323.323 0 00.317-.328.323.323 0 00-.317-.328h-6.117a.323.323 0 00-.318.328c0 .181.142.328.318.328" fill="#1A1919"/>
    <g transform="translate(.805 9.097)">
      <mask id="d" fill="#fff">
        <use xlink:href="#c"/>
      </mask>
      <path d="M10.694 8.88h4.761a.323.323 0 00.318-.328.323.323 0 00-.318-.328h-4.761a.323.323 0 00-.318.328c0 .181.142.328.318.328" fill="#1A1919" mask="url(#d)"/>
      <path d="M21.064 10.337c-.415.024-.82.219-1.153.559-.371.378-.608.884-.64 1.35H2.441c-.032-.466-.27-.972-.64-1.35-.334-.34-.738-.535-1.154-.56V2.582c.416-.024.82-.219 1.154-.559.37-.378.608-.884.64-1.35H19.27c.032.466.27.972.64 1.35.334.34.739.535 1.154.56v7.755zm.483-8.268a.483.483 0 00-.36-.142c-.288.011-.583-.12-.83-.372-.28-.286-.463-.692-.455-1.012a.528.528 0 00-.141-.373.484.484 0 00-.354-.155H2.306A.483.483 0 001.95.17a.528.528 0 00-.14.373c.007.32-.175.726-.456 1.012-.246.251-.541.383-.83.372a.484.484 0 00-.36.142.524.524 0 00-.152.37v8.04c0 .14.055.274.152.37a.486.486 0 00.36.142c.289-.011.584.12.83.372.28.286.463.692.455 1.012a.528.528 0 00.141.373c.094.1.22.155.355.155h17.1c.135 0 .261-.055.355-.155a.528.528 0 00.141-.373c-.008-.32.175-.726.455-1.012.247-.251.541-.383.83-.372a.486.486 0 00.36-.142.524.524 0 00.153-.37V2.44a.524.524 0 00-.153-.37z" fill="#1A1919" mask="url(#d)"/>
    </g>
    <path d="M9.614 6.208a.317.317 0 00-.39-.232.33.33 0 00-.224.402l.54 2.079h.657l-.583-2.249M13.13 5.599l-2.395.663a.33.33 0 00-.225.402c.045.174.22.278.39.231l2.395-.662a.33.33 0 00.224-.402.317.317 0 00-.389-.232" fill="#1A1919"/>
    <g>
      <mask id="f" fill="#fff">
        <use xlink:href="#e"/>
      </mask>
      <path d="M2.484 7.496a.45.45 0 00-.283.212.48.48 0 00-.05.36l.184.707c.162-.159.363-.262.58-.3l-.104-.399c.28-.116.521-.337.692-.637.19-.335.271-.728.229-1.07l3.402-.942.253-.07 9.778-2.706c.129.319.39.618.717.81.293.172.608.238.907.194l1.246 4.802h.177c.182 0 .357.044.514.127l-1.37-5.276a.466.466 0 00-.217-.287.437.437 0 00-.347-.037c-.234.075-.453-.01-.596-.094-.23-.135-.425-.373-.473-.578a.469.469 0 00-.208-.292.432.432 0 00-.345-.05L7.223 4.724l-.254.07-3.571.988a.447.447 0 00-.276.221.483.483 0 00-.038.36c.058.203.005.509-.13.745-.083.147-.231.333-.47.39" fill="#1A1919" mask="url(#f)"/>
      <path d="M1.31 10.368h.046l.009.001a.285.285 0 00.035-.003L.666 7.54c.396-.135.738-.431.974-.849.264-.464.367-1.016.28-1.476L18.175.718c.148.443.504.867.957 1.133.407.24.847.32 1.255.232l1.944 7.492c-.295.1-.56.29-.774.554.016.02.033.039.051.057.114.116.241.183.349.183h.01a1.108 1.108 0 01.238.016.98.98 0 01.409-.211.495.495 0 00.312-.233.53.53 0 00.054-.398l-2.015-7.767a.513.513 0 00-.24-.317.478.478 0 00-.383-.04c-.276.088-.594.04-.896-.138-.342-.2-.62-.545-.693-.856a.518.518 0 00-.23-.323.478.478 0 00-.38-.054L1.624 4.618a.493.493 0 00-.303.244.534.534 0 00-.043.398c.088.307.013.749-.186 1.1-.175.308-.427.514-.709.58a.493.493 0 00-.312.234.53.53 0 00-.054.397l.761 2.935c.162-.09.344-.138.532-.138" fill="#1A1919" mask="url(#f)"/>
    </g>
    <path d="M17.507 7.956a.33.33 0 00.225-.401.317.317 0 00-.39-.232l-4.098 1.134H15.7l1.808-.5M10.86 8.011c.045.176.22.28.389.232l5.909-1.634a.33.33 0 00.224-.402.317.317 0 00-.389-.232L11.084 7.61a.33.33 0 00-.224.401" fill="#1A1919"/>
  </g>
</svg>