<svg xmlns="http://www.w3.org/2000/svg" xmlns:xlink="http://www.w3.org/1999/xlink" width="19" height="16" viewBox="0 0 24 20"><defs><path d="M33 20.385c-.897.384-1.794.692-2.841.769 1.047-.616 1.794-1.616 2.168-2.77-.972.616-2.019 1-3.14 1.231-.897-1-2.168-1.615-3.514-1.615-2.692 0-4.935 2.23-4.935 5.077 0 .385.075.77.15 1.154C16.776 24 13.187 22 10.72 18.923a4.948 4.948 0 00-.673 2.539c0 1.769.897 3.307 2.168 4.23a4.47 4.47 0 01-2.243-.615v.077c0 2.461 1.72 4.461 3.963 4.923-.449.077-.823.154-1.271.154-.3 0-.599 0-.898-.077.598 2 2.468 3.461 4.561 3.538-1.645 1.385-3.813 2.154-6.13 2.154-.375 0-.823 0-1.197-.077C11.243 37.154 13.86 38 16.626 38c9.047 0 13.981-7.692 13.981-14.385V23c.898-.77 1.72-1.615 2.393-2.615z" id="twitter-a" fill="#FFFFFF"></path></defs><use fill-rule="nonzero" xlink:href="#twitter-a" transform="translate(-9 -18)"></use></svg>