<?xml version="1.0" encoding="UTF-8"?>
<svg width="544px" height="625px" viewBox="0 0 544 625" version="1.1" xmlns="http://www.w3.org/2000/svg" xmlns:xlink="http://www.w3.org/1999/xlink">
    <!-- Generator: Sketch 61 (89581) - https://sketch.com -->
    <title>Group 26</title>
    <desc>Created with Sketch.</desc>
    <g id="Homepage" stroke="none" stroke-width="1" fill="none" fill-rule="evenodd">
        <g id="MSAC_Homepage_Option2_Hover" transform="translate(-879.000000, -4092.000000)" fill="#FFC838">
            <g id="Group-26" transform="translate(879.000000, 4092.000000)">
                <g id="Group-28" transform="translate(272.000000, 0.000000)">
                    <polygon id="Fill-2" transform="translate(227.000000, 282.000000) scale(-1, 1) translate(-227.000000, -282.000000) " points="182 503 272 503 272 121.47321 182 61"></polygon>
                    <polygon id="Fill-5" transform="translate(135.000000, 91.000000) scale(-1, 1) translate(-135.000000, -91.000000) " points="90 0 90 121.329011 180 182 180 60.6655292"></polygon>
                    <polygon id="Fill-5-Copy" transform="translate(45.000000, 272.000000) scale(-1, 1) translate(-45.000000, -272.000000) " points="0 181 0 302.329011 90 363 90 241.665529"></polygon>
                </g>
                <g id="Group-28-Copy" transform="translate(0.000000, 122.000000)">
                    <polygon id="Fill-2" transform="translate(227.000000, 282.000000) scale(-1, 1) translate(-227.000000, -282.000000) " points="182 503 272 503 272 121.47321 182 61"></polygon>
                    <polygon id="Fill-5" transform="translate(135.000000, 91.000000) scale(-1, 1) translate(-135.000000, -91.000000) " points="90 0 90 121.329011 180 182 180 60.6655292"></polygon>
                    <polygon id="Fill-5-Copy" transform="translate(45.000000, 272.000000) scale(-1, 1) translate(-45.000000, -272.000000) " points="0 181 0 302.329011 90 363 90 241.665529"></polygon>
                </g>
            </g>
        </g>
    </g>
</svg>