<svg xmlns="http://www.w3.org/2000/svg" 
  xmlns:xlink="http://www.w3.org/1999/xlink" viewBox="0 0 19 21">
  <defs>
    <path id="a" d="M0 .016h19v8.445H0z"/>
    <path id="c" d="M0 .002H17.77v11.843H0z"/>
  </defs>
  <g fill="none" fill-rule="evenodd">
    <g transform="translate(0 12.54)">
      <mask id="b" fill="#fff">
        <use xlink:href="#a"/>
      </mask>
      <path d="M17.703.016a1.31 1.31 0 00-.92.38c-.244.242-.38.57-.378.911v1.431c-.132.767-.804 1.476-1.924 2.049-1.322.676-3.092 1.047-4.975 1.047-1.884 0-3.662-.372-4.983-1.047-1.12-.573-1.796-1.282-1.928-2.049v-1.43c0-.708-.581-1.28-1.297-1.28C.58.027 0 .6 0 1.307v6.82c0 .09.039.177.105.24a.343.343 0 00.247.093h1.913a.323.323 0 00.239-.096.315.315 0 00.091-.237V4.227c.396.436.931.834 1.6 1.176 1.42.726 3.306 1.125 5.3 1.125 1.993 0 3.887-.4 5.307-1.125.67-.342 1.207-.74 1.603-1.176v3.9a.314.314 0 00.091.238c.063.064.15.098.24.096h1.912c.092.003.181-.03.247-.093a.334.334 0 00.105-.24v-6.82a1.274 1.274 0 00-.377-.912 1.31 1.31 0 00-.92-.38zM1.298.71a.6.6 0 01.423.177.584.584 0 01.17.42v.862H.704v-.862a.583.583 0 01.17-.42.6.6 0 01.424-.177zM.704 7.766h1.187V2.863H.704v4.903zM17.703.71a.6.6 0 01.423.177.584.584 0 01.17.42v.862H17.11v-.862a.583.583 0 01.17-.42.6.6 0 01.424-.177zm-.594 7.056h1.187V2.863H17.11v4.903z" fill="#000" mask="url(#b)"/>
    </g>
    <path d="M17.065 1.649a.35.35 0 00-.352-.347H2.287a.35.35 0 00-.352.347v8.547a.35.35 0 00.352.347h14.426a.35.35 0 00.352-.347V1.65zm-.704.347V5.53l-4.656 2.503a1.274 1.274 0 01-1.421-.124L8.064 6.08a2.001 2.001 0 00-2.367-.102L2.639 7.973V1.996h13.722zM2.64 9.849V8.805l3.448-2.248.006-.004a1.286 1.286 0 011.521.063l2.22 1.828a1.98 1.98 0 002.211.198l4.316-2.32v3.527H2.64z" fill="#000"/>
    <g transform="translate(.616)">
      <mask id="d" fill="#fff">
        <use xlink:href="#c"/>
      </mask>
      <path d="M10.27 5.85c.938 0 1.7-.726 1.7-1.618 0-.893-.762-1.619-1.7-1.619-.936 0-1.699.726-1.699 1.619 0 .892.763 1.618 1.7 1.618zm0-2.543c.55 0 .997.415.997.925s-.447.924-.996.924c-.55 0-.996-.415-.996-.924 0-.51.446-.925.996-.925z" fill="#000" mask="url(#d)"/>
      <path d="M17.769.347A.35.35 0 0017.417 0H.352A.35.35 0 000 .347v11.15a.35.35 0 00.352.348h17.065a.35.35 0 00.352-.347V.348zM.704 11.151h16.361V.694H.704v10.457z" fill="#000" mask="url(#d)"/>
    </g>
  </g>
</svg>